<svg xmlns="http://www.w3.org/2000/svg" viewBox="0 0 82.33 78.74"><defs><style>.cls-1{fill:#231f20;}</style></defs><title>arrows_grid_1</title><g id="Layer_2" data-name="Layer 2"><g id="Layer_1-2" data-name="Layer 1"><g id="Layer_2-2" data-name="Layer 2"><g id="pil"><path class="cls-1" d="M2.06,17.6a1.19,1.19,0,0,0,1.25.95,1.15,1.15,0,0,0,1.2-1L4.15,7.41,17.36,20.62l1.74-1.73L5.88,5.67,15.75,6s1.17-.16,1.18-1.24a1.23,1.23,0,0,0-1.06-1.22S2,3,1.47,3.05"/></g></g><g id="Layer_2-3" data-name="Layer 2"><g id="pil-2" data-name="pil"><path class="cls-1" d="M30.2,10.71a1.19,1.19,0,0,0,.22,1.56,1.16,1.16,0,0,0,1.58.12L38.88,5V23.67h2.46V5l6.72,7.24a1.34,1.34,0,0,0,1.71-.05,1.21,1.21,0,0,0,.12-1.6S40.49.33,40.07,0"/></g></g><g id="Layer_2-4" data-name="Layer 2"><g id="pil-3" data-name="pil"><path class="cls-1" d="M66.07,3.64a1.19,1.19,0,0,0-.95,1.26,1.15,1.15,0,0,0,1,1.2l10.11-.37L63,18.94l1.74,1.74L78,7.46l-.36,9.87s.16,1.17,1.24,1.18a1.22,1.22,0,0,0,1.22-1.05s.58-13.88.52-14.41"/></g></g><g id="Layer_2-5" data-name="Layer 2"><g id="pil-4" data-name="pil"><path class="cls-1" d="M10.71,49.42a1.19,1.19,0,0,0,1.56-.22,1.15,1.15,0,0,0,.12-1.57L5,40.74H23.67V38.28H5l7.24-6.72a1.34,1.34,0,0,0-.05-1.71,1.21,1.21,0,0,0-1.6-.12S.33,39.13,0,39.55"/></g></g><g id="Layer_2-6" data-name="Layer 2"><g id="pil-5" data-name="pil"><path class="cls-1" d="M71.63,29.87a1.2,1.2,0,0,0-1.56.22A1.14,1.14,0,0,0,70,31.67l7.41,6.89H58.67V41H77.36l-7.24,6.73a1.34,1.34,0,0,0,0,1.71,1.23,1.23,0,0,0,1.61.11S82,40.16,82.33,39.75"/></g></g><g id="Layer_2-7" data-name="Layer 2"><g id="pil-6" data-name="pil"><path class="cls-1" d="M17,73.52A1.19,1.19,0,0,0,18,72.26a1.15,1.15,0,0,0-1-1.2l-10.1.37L20,58.22,18.3,56.48,5.08,69.7l.37-9.87s-.17-1.17-1.24-1.18A1.2,1.2,0,0,0,3,59.7S2.4,73.58,2.46,74.11"/></g></g><g id="Layer_2-8" data-name="Layer 2"><g id="pil-7" data-name="pil"><path class="cls-1" d="M52,68a1.2,1.2,0,0,0-.22-1.56,1.15,1.15,0,0,0-1.58-.12l-6.89,7.41V55.08H40.9V73.77l-6.73-7.23a1.34,1.34,0,0,0-1.71,0,1.23,1.23,0,0,0-.11,1.61s9.4,10.23,9.81,10.55"/></g></g><g id="Layer_2-9" data-name="Layer 2"><g id="pil-8" data-name="pil"><path class="cls-1" d="M78.06,59.53a1.19,1.19,0,0,0-1.26-1,1.15,1.15,0,0,0-1.2,1L76,69.72,62.76,56.5,61,58.24,74.24,71.46l-9.87-.36s-1.17.16-1.18,1.24a1.22,1.22,0,0,0,1,1.22s13.88.58,14.41.52"/></g></g></g></g></svg>